<svg width="143" height="81" viewBox="0 0 143 81" fill="none" xmlns="http://www.w3.org/2000/svg">
<path d="M71.3389 37.9234C71.5022 37.8567 71.6562 37.7418 71.7965 37.6314C73.572 36.2241 75.2923 34.7272 76.7504 32.9923C78.2085 31.2573 79.4033 29.2706 80.022 27.0908C80.1588 29.258 80.1807 31.4321 80.0898 33.6016C80.0438 34.6858 79.9702 35.77 79.8679 36.8507C79.7701 37.8786 79.7517 38.9513 79.5493 39.9653C79.3148 41.8152 79.0411 43.6617 78.703 45.4966C78.2511 47.9547 77.7348 50.4002 77.1621 52.833C76.1812 56.9961 75.0278 61.1121 73.8354 65.2189C73.7008 65.6822 73.5766 66.149 73.4306 66.6089C73.38 66.7676 73.3742 66.84 73.5686 66.8687C75.1463 67.101 76.724 67.3309 78.2994 67.5827C81.3996 68.0771 84.4894 68.6232 87.4505 69.7131C88.7189 70.1799 89.9585 70.7076 90.9555 71.6619C91.335 72.0252 91.6592 72.4265 91.6799 72.9967C91.7041 73.6544 91.3016 74.0464 90.8232 74.3753C90.0321 74.9191 89.1213 75.1778 88.2037 75.4054C87.0434 75.694 85.8567 75.8273 84.6734 75.9791C82.86 76.2114 81.0362 76.2792 79.2113 76.3079C77.8141 76.3298 76.4192 76.2585 75.0244 76.2056C74.9278 76.2022 74.83 76.1976 74.7404 76.1619C74.6208 76.1136 74.5311 76.0148 74.446 75.9182L73.4777 74.8282C73.2443 74.5661 73.0051 74.4074 72.6498 74.4994C72.4681 74.5466 72.4945 74.5121 72.4554 74.7202C72.2577 75.7733 72.0553 76.8253 71.8448 77.8761C71.7356 78.4223 71.624 78.9684 71.5102 79.5133C71.4516 79.7916 71.3665 80.8884 71.133 80.9999C70.9513 80.5377 70.8961 79.9813 70.7788 79.495C70.6489 78.9592 70.5132 78.4234 70.3775 77.8888C70.1073 76.823 69.8359 75.7561 69.6197 74.6765C69.6071 74.6167 69.5921 74.55 69.5415 74.5155C69.5116 74.4948 69.4737 74.4879 69.438 74.4833C69.2966 74.4649 69.1482 74.4592 69.016 74.5121C68.8677 74.5707 68.7561 74.6937 68.6515 74.8133L67.8546 75.7147C67.7235 75.863 67.5901 76.0136 67.4211 76.1148C67.0726 76.3229 66.4655 76.2321 66.0687 76.2481C65.5041 76.2723 64.9395 76.2895 64.3749 76.2999C63.2457 76.3206 62.1153 76.3102 60.9872 76.255C58.3401 76.124 55.6987 75.9101 53.1321 75.1893C52.3685 74.9754 51.6257 74.6914 51.0185 74.1534C50.2848 73.5026 50.2457 72.6817 50.8977 71.9413C51.6762 71.0549 52.6905 70.5237 53.753 70.0742C55.8148 69.2015 57.9744 68.6611 60.1616 68.2254C62.3395 67.792 64.5336 67.4539 66.7323 67.1458C67.3406 67.0607 67.9454 66.9504 68.5537 66.8676C68.7826 66.8365 68.7343 66.7331 68.694 66.5756C68.0558 64.1129 67.4199 61.6502 66.7943 59.184C65.7813 55.1853 64.8291 51.1728 64.0518 47.12C63.6136 44.8355 63.2284 42.543 62.926 40.2366C62.4522 36.6288 62.1843 33.0061 62.205 29.3638C62.2084 28.7579 62.1256 28.0853 62.2176 27.4886C62.2004 27.6012 62.4856 27.9864 62.5385 28.106C62.6293 28.3072 62.7098 28.5141 62.7995 28.7165C63.049 29.2798 63.3193 29.834 63.6113 30.3767C64.6198 32.253 65.9549 33.9327 67.5211 35.3768C68.4801 36.2609 69.4495 37.1002 70.5661 37.7923C70.6972 37.874 70.834 37.9545 70.987 37.9752C71.1112 37.9924 71.2308 37.9683 71.3458 37.9211L71.3389 37.9234Z" fill="#08030A"/>
<path d="M64.168 16.9618C64.4199 16.1386 64.735 15.4177 65.0512 14.7003C65.479 13.73 65.9688 12.7814 66.2828 11.7697C66.6553 10.5659 66.8784 9.33688 65.9527 8.2412C64.7315 6.796 62.5317 6.84659 60.808 6.89028C60.3744 6.90177 59.9409 6.92017 59.5074 6.93397C59.4108 6.93741 59.3073 6.94316 59.2337 7.00525C59.1843 7.04664 59.1567 7.10757 59.1337 7.16851C59.0739 7.32717 59.0371 7.49733 58.9359 7.63414C58.8646 7.73072 58.7174 7.83534 58.5886 7.80775C58.4472 7.77786 58.4023 7.58701 58.3483 7.46628C58.1988 7.13632 58.0815 6.77645 58.147 6.41084C58.2229 5.982 58.4782 5.60144 58.7622 5.28067C59.5442 4.39538 60.5964 3.9309 61.6865 3.54804C61.9671 3.44917 62.2396 3.3273 62.5294 3.25486C62.6835 3.21692 62.8215 3.19968 62.979 3.21462C63.163 3.23302 63.347 3.27556 63.5298 3.22727C63.6598 3.19278 63.7794 3.12954 63.8955 3.06056C64.1117 2.93179 64.3141 2.78118 64.5245 2.64436C64.735 2.50755 64.958 2.39717 65.1846 2.2868C65.6848 2.04421 66.208 1.85106 66.7427 1.69814C66.7531 1.6947 66.7634 1.6924 66.7749 1.68895C67.2935 1.54293 67.8225 1.43716 68.3561 1.36588C71.4517 0.955426 74.0574 2.60642 75.0176 5.40484C75.5604 6.98685 75.8352 8.59876 75.8686 10.2624C75.8881 11.2535 76.1365 12.1985 76.4987 13.1149C76.9449 14.2427 77.4072 15.3637 77.8614 16.4893C77.8959 16.5732 77.9649 16.6537 77.9016 16.7813C77.9488 16.6859 76.8954 15.7259 76.7805 15.6143C76.4044 15.2476 76.01 14.8992 75.5983 14.5738C74.3863 13.6127 72.8408 12.5182 71.2413 12.4434C70.1028 12.3905 68.9759 12.9297 68.0295 13.5173C67.2912 13.976 66.6139 14.5256 65.9769 15.1154C65.6721 15.3982 65.3801 15.6914 65.0926 15.9903C64.9362 16.1536 64.781 16.3168 64.6257 16.4801C64.5153 16.5974 64.214 16.8112 64.168 16.9607V16.9618Z" fill="#FD6125"/>
<path d="M123.039 65.3742C123.039 66.4997 123.024 67.6265 123.048 68.752C123.056 69.0958 122.94 69.1533 122.631 69.151C120.816 69.1372 119.001 69.1613 117.188 69.1395C115.103 69.1142 113.407 67.9898 112.793 66.0261C112.087 63.7692 111.997 61.4962 112.883 59.2588C113.614 57.4089 115.11 56.3845 117.139 56.3466C119 56.3121 120.862 56.3408 122.724 56.3305C122.964 56.3293 123.055 56.3822 123.046 56.6397C123.026 57.1721 123.026 57.7067 123.046 58.239C123.055 58.4931 122.972 58.5529 122.728 58.5506C121.139 58.5402 119.549 58.5828 117.962 58.5345C116.423 58.4873 115.515 59.2968 115.222 60.704C114.903 62.2297 114.869 63.7565 115.363 65.2546C115.698 66.2686 116.437 66.786 117.497 66.7964C118.422 66.8056 119.348 66.7918 120.272 66.8056C120.496 66.809 120.551 66.7389 120.548 66.5239C120.537 65.7179 120.537 64.912 120.548 64.106C120.551 63.8818 120.499 63.8002 120.255 63.8036C119.377 63.8197 118.5 63.8002 117.623 63.8151C117.372 63.8197 117.271 63.7772 117.283 63.4932C117.309 62.9253 117.297 62.3562 117.288 61.787C117.285 61.6054 117.335 61.541 117.526 61.5421C119.281 61.549 121.037 61.5502 122.792 61.541C123.046 61.5398 123.045 61.6698 123.045 61.8514C123.041 63.0253 123.042 64.198 123.042 65.3719L123.039 65.3742Z" fill="#08030A"/>
<path d="M40.8202 62.6022C40.8202 60.6937 40.8271 58.784 40.8133 56.8755C40.811 56.5892 40.8949 56.5191 41.1686 56.5283C41.785 56.5478 42.4025 56.5478 43.0188 56.5283C43.2914 56.5202 43.3822 56.5881 43.3788 56.8766C43.3627 58.2873 43.3788 59.6992 43.365 61.1099C43.3627 61.3927 43.4144 61.4939 43.726 61.4893C45.0669 61.4698 46.4077 61.4698 47.7473 61.4893C48.0567 61.4939 48.1096 61.3985 48.1073 61.1145C48.0923 59.6923 48.1073 58.2689 48.0946 56.8456C48.0923 56.6042 48.1452 56.5202 48.4028 56.5271C49.0663 56.5467 49.731 56.5398 50.3956 56.5294C50.59 56.526 50.6613 56.5731 50.6613 56.7835C50.6555 60.696 50.6555 64.6096 50.6613 68.5221C50.6613 68.7383 50.5785 68.7751 50.3899 68.7728C49.7137 68.7647 49.0376 68.759 48.3614 68.7751C48.1234 68.7808 48.0946 68.6854 48.0958 68.4842C48.1027 66.9781 48.0912 65.4719 48.1073 63.967C48.1107 63.6669 48.0268 63.5979 47.7347 63.6013C46.4065 63.6186 45.0772 63.6209 43.749 63.6002C43.4202 63.5944 43.3615 63.7002 43.3638 64.0014C43.3788 65.4593 43.3627 66.9183 43.3776 68.3773C43.3811 68.6751 43.3282 68.7958 42.9947 68.7797C42.3795 68.7498 41.7608 68.7555 41.1445 68.7774C40.8673 68.7877 40.8121 68.6946 40.8133 68.4359C40.8236 66.4917 40.819 64.5464 40.819 62.6022H40.8202Z" fill="#FD6125"/>
<path d="M139.551 63.7634C138.52 63.7634 137.487 63.7691 136.456 63.7588C136.221 63.7565 136.145 63.8277 136.164 64.0634C136.232 64.9338 136.327 65.7834 137.057 66.4089C137.377 66.6836 137.721 66.8412 138.139 66.8734C139.643 66.9895 141.151 66.9067 142.656 66.9228C142.913 66.9251 143.008 66.9711 142.995 67.2505C142.971 67.7943 142.98 68.3415 142.992 68.8865C142.997 69.0854 142.943 69.1521 142.736 69.1475C141.065 69.113 139.388 69.236 137.722 69.0693C135.795 68.8762 134.546 67.777 133.885 65.9961C133.451 64.828 133.36 63.6127 133.411 62.3676C133.459 61.1834 133.64 60.0394 134.132 58.9633C134.834 57.425 136.053 56.5811 137.733 56.4121C139.413 56.243 141.098 56.3776 142.78 56.3339C142.926 56.3304 142.993 56.3661 142.991 56.5293C142.983 57.1341 142.978 57.7388 142.992 58.3436C142.998 58.577 142.862 58.5471 142.718 58.5459C141.426 58.5459 140.132 58.5275 138.84 58.5494C136.938 58.5827 136.236 59.8221 136.164 61.3455C136.151 61.6191 136.339 61.5444 136.474 61.5444C137.731 61.5479 138.989 61.5467 140.246 61.5467C141.041 61.5467 141.836 61.5617 142.63 61.5387C142.937 61.5295 143.007 61.6306 142.993 61.9169C142.97 62.4136 142.971 62.9137 142.993 63.4104C143.005 63.6817 142.938 63.7749 142.647 63.7691C141.616 63.7507 140.583 63.7622 139.551 63.7622V63.7634Z" fill="#08030A"/>
<path d="M95.7421 63.7634C94.7106 63.7634 93.6779 63.7634 92.6465 63.7634C92.5016 63.7634 92.3164 63.7117 92.3302 63.9692C92.3785 64.8913 92.4774 65.7858 93.2594 66.4411C93.5653 66.6964 93.8941 66.8378 94.2828 66.87C95.7869 66.9918 97.2933 66.9079 98.7986 66.9206C99.0826 66.9229 99.1562 66.9987 99.1447 67.2747C99.1229 67.807 99.1321 68.3416 99.1413 68.8751C99.1447 69.059 99.1206 69.1522 98.8975 69.1476C97.2266 69.1119 95.5546 69.2039 93.8838 69.0763C92.1531 68.9441 90.6065 67.707 90.0292 65.9651C89.6578 64.8442 89.5302 63.6956 89.5693 62.5091C89.6049 61.41 89.7567 60.3453 90.1477 59.3209C90.7997 57.6113 92.0244 56.6064 93.8631 56.4133C95.5535 56.2362 97.2508 56.3765 98.9446 56.3305C99.1482 56.3247 99.1401 56.4351 99.1401 56.5754C99.1367 57.1445 99.1263 57.7136 99.1447 58.2816C99.1528 58.5161 99.0642 58.5495 98.8595 58.5483C97.6142 58.5403 96.3688 58.5483 95.1234 58.5426C93.2502 58.5334 92.4038 59.6888 92.3291 61.3295C92.3153 61.625 92.5177 61.5422 92.6637 61.5433C94.6795 61.5468 96.6965 61.5571 98.7123 61.5353C99.0895 61.5307 99.1689 61.6433 99.147 61.9871C99.1171 62.447 99.1217 62.9126 99.147 63.3737C99.1631 63.6726 99.0987 63.7795 98.7687 63.7703C97.7613 63.745 96.7529 63.7611 95.7444 63.7611L95.7421 63.7634Z" fill="#08030A"/>
<path d="M23.811 63.6094C22.7323 63.6094 21.6525 63.6163 20.5739 63.6036C20.329 63.6002 20.2531 63.6588 20.2577 63.9152C20.2738 64.843 20.4911 65.6593 21.2903 66.2468C21.7629 66.5941 22.2977 66.6424 22.8393 66.6481C24.2502 66.6642 25.6612 66.6596 27.0722 66.6492C27.309 66.647 27.4033 66.6895 27.3918 66.9516C27.3688 67.4724 27.3757 67.9944 27.3895 68.5152C27.3953 68.7199 27.3274 68.7762 27.1285 68.7728C25.4094 68.7475 23.6879 68.8475 21.9722 68.7118C19.8127 68.5417 18.1763 67.3195 17.6037 65.0017C17.1356 63.1104 17.2035 61.2191 17.9475 59.4003C18.6294 57.7332 19.9127 56.8146 21.702 56.6237C23.5223 56.4306 25.3507 56.5743 27.1745 56.5306C27.3148 56.5271 27.3907 56.5524 27.3884 56.7203C27.3803 57.2894 27.3757 57.8585 27.3895 58.4265C27.3953 58.6679 27.2446 58.6196 27.1101 58.6196C25.7819 58.6196 24.4538 58.607 23.1256 58.6254C22.4218 58.6357 21.7376 58.7599 21.1661 59.2278C20.4992 59.7739 20.2726 60.504 20.2588 61.3329C20.2542 61.6112 20.4474 61.5215 20.5774 61.5215C22.653 61.5261 24.7275 61.525 26.8031 61.525C27.191 61.525 27.3849 61.7246 27.3849 62.124C27.3849 62.5149 27.37 62.9069 27.3907 63.2967C27.4045 63.5416 27.3389 63.6163 27.0825 63.6128C25.9912 63.5979 24.9011 63.6059 23.8098 63.6059L23.811 63.6094Z" fill="#FD6125"/>
<path d="M35.8897 68.7704C34.9663 68.7521 33.8738 68.8314 32.7964 68.606C30.93 68.2163 29.7284 67.0838 29.2155 65.2719C28.6578 63.3012 28.6578 61.3237 29.4432 59.4014C30.1262 57.7285 31.4084 56.818 33.1954 56.626C35.0042 56.4328 36.8211 56.5777 38.6334 56.5305C38.8369 56.5248 38.8634 56.6133 38.8611 56.7835C38.853 57.2928 38.845 57.8033 38.8645 58.3126C38.8737 58.5575 38.7852 58.6058 38.5609 58.6046C37.1856 58.5989 35.8092 58.5828 34.4339 58.6184C33.1103 58.6529 32.2823 59.3244 31.9259 60.6063C31.5521 61.9515 31.5234 63.3231 31.8178 64.6786C32.0064 65.5501 32.4468 66.2974 33.4104 66.5411C33.7657 66.6308 34.1337 66.6561 34.5017 66.6561C35.8414 66.6538 37.1822 66.6653 38.5218 66.6481C38.8128 66.6446 38.8749 66.7366 38.8634 67.0033C38.8427 67.5 38.8473 67.999 38.8634 68.4968C38.8703 68.7164 38.8001 68.7785 38.5828 68.7762C37.741 68.7647 36.8981 68.7716 35.892 68.7716L35.8897 68.7704Z" fill="#FD6125"/>
<path d="M11.5959 56.5535C13.2449 56.5535 14.8928 56.5581 16.5406 56.5478C16.7821 56.5466 16.8684 56.5949 16.858 56.8536C16.8362 57.3744 16.8396 57.8964 16.858 58.4172C16.8661 58.646 16.7867 58.6897 16.5751 58.6874C15.4608 58.677 14.3454 58.6931 13.2311 58.6759C12.9471 58.6713 12.8804 58.7541 12.8816 59.03C12.8919 62.1469 12.8827 65.2649 12.8954 68.3818C12.8965 68.6888 12.831 68.7923 12.5067 68.7773C11.88 68.7486 11.2498 68.752 10.622 68.7773C10.3184 68.7888 10.2241 68.7198 10.2264 68.3945C10.2413 65.2891 10.2298 62.1837 10.2436 59.0783C10.2448 58.7529 10.162 58.6701 9.84 58.677C8.76137 58.6977 7.68159 58.677 6.60295 58.6908C6.36492 58.6943 6.30397 58.6219 6.31202 58.3931C6.32812 57.8952 6.33272 57.3974 6.31202 56.8996C6.30052 56.6294 6.36607 56.5443 6.6547 56.5466C8.30255 56.5616 9.95154 56.5547 11.5994 56.5547L11.5959 56.5535Z" fill="#FD6125"/>
<path d="M124.835 60.6443C124.835 59.3049 124.841 57.9666 124.83 56.6283C124.828 56.4018 124.882 56.3248 125.12 56.3317C125.724 56.3489 126.33 56.3524 126.934 56.3317C127.2 56.3225 127.266 56.3961 127.265 56.6628C127.254 59.2462 127.259 61.8285 127.26 64.4119C127.26 64.8396 127.292 65.2662 127.44 65.6686C127.767 66.5688 128.44 66.9976 129.552 67.0126C130.548 67.0252 131.544 67.0218 132.539 67.0126C132.763 67.0103 132.85 67.0574 132.841 67.3012C132.821 67.822 132.827 68.3439 132.838 68.8648C132.843 69.0694 132.804 69.1591 132.569 69.1534C131.137 69.1189 129.703 69.1936 128.27 69.0867C126.806 68.9774 125.44 67.7909 125.06 66.2411C124.917 65.6548 124.843 65.0557 124.841 64.451C124.836 63.1829 124.84 61.9159 124.84 60.6477H124.837L124.835 60.6443Z" fill="#08030A"/>
<path d="M142.421 0.00114975C142.618 4.13899 141.165 7.69047 138.209 10.628C133.473 15.3327 127.058 17.5918 120.437 17.0308C116.928 16.733 113.464 15.9868 109.947 15.8167C105.56 15.6051 101.178 16.3616 97.0725 17.9023C93.0972 19.3935 89.3863 21.6757 86.3321 24.6304C86.2114 24.7477 86.0918 24.865 85.9722 24.9845C85.7399 25.2168 85.4444 25.5272 85.1098 25.6054C84.9603 25.6399 84.782 25.5985 84.7015 25.4674C84.6544 25.3904 84.6475 25.2961 84.6521 25.2053C84.6716 24.8236 84.8625 24.4741 85.0626 24.1487C86.1378 22.3965 87.5947 20.8984 89.2127 19.6303C92.5992 16.979 96.6447 15.0694 100.788 13.9541C101.609 13.7334 102.438 13.5437 103.273 13.3862C108.903 12.325 114.696 12.7216 120.407 12.2595C128.342 11.6179 136.467 8.81719 141.188 2.0281C141.545 1.51533 141.83 0.953117 142.151 0.416198C142.235 0.274783 142.33 0.139116 142.42 0L142.421 0.00114975Z" fill="#FD6125"/>
<path d="M122.512 23.8348C119.44 23.8072 116.373 23.4853 113.363 22.9012C110.337 22.3149 107.267 21.8826 104.179 21.8699C99.9141 21.8515 95.488 22.5425 91.5714 24.2843C90.2743 24.8615 89.0404 25.5801 87.8997 26.424C87.626 26.6263 86.2369 27.4472 86.6968 26.4665C87.0464 25.7203 87.6651 25.1363 88.3079 24.6189C89.8867 23.3496 91.6898 22.3873 93.5757 21.6572C94.0518 21.4733 94.5336 21.3031 95.0189 21.1456C95.4478 21.0065 95.8779 20.9663 96.301 20.8214C97.3302 20.4719 98.3847 20.2017 99.4541 20.0062C102.47 19.4544 105.56 19.4647 108.611 19.6579C113.156 19.9453 117.768 20.7513 122.323 20.3592C122.616 20.3339 122.909 20.3029 123.201 20.2672C126.012 19.9177 128.723 19.0324 131.32 17.9241C132.63 17.3653 133.914 16.7502 135.186 16.111C135.863 15.7707 136.48 15.3487 137.203 15.1038C137.514 14.9992 137.87 15.0314 137.771 15.4384C137.389 17.0135 136.348 18.2863 135.27 19.4498C134.2 20.6029 132.942 21.6101 131.49 22.2355C128.828 23.383 126.159 23.8107 123.265 23.8314C123.014 23.8337 122.763 23.8325 122.512 23.8314V23.8348Z" fill="#FD6125"/>
<path d="M95.2737 28.9752C98.3486 28.9936 101.398 29.749 104.256 30.8711C107.708 32.2266 110.843 34.3938 114.465 35.3056C116.374 35.7862 118.347 35.885 120.303 36.0023C120.919 36.0391 121.8 35.8379 122.364 36.146C123.316 36.6645 121.801 37.6878 121.292 37.9948C119.277 39.2066 116.954 39.9585 114.603 39.9343C111.493 39.9033 108.363 38.5811 105.707 37.0152C103.47 35.6976 101.134 34.5548 98.7327 33.5649C96.7893 32.7635 94.8172 32.0369 92.7347 31.7058C91.4077 31.4954 90.336 31.2264 88.9871 31.1907C88.1108 31.1677 86.9885 31.2965 86.1284 31.4759C86.0019 31.5023 85.7868 31.5379 85.6293 31.4931C85.4453 31.4414 85.4453 31.1758 85.6247 31.1102C88.0752 30.2158 90.5659 29.3684 93.1579 29.0844C93.8628 29.0074 94.5688 28.9729 95.2737 28.9764V28.9752Z" fill="#FD6125"/>
<path d="M102.039 23.8589C104.865 23.8808 107.708 24.3062 110.486 25.0788C110.723 25.1443 110.96 25.2087 111.195 25.2766C113.777 26.0147 116.33 26.8563 118.944 27.4829C121.101 27.9991 123.275 28.3681 125.505 28.3072C128.067 28.2359 130.414 27.5289 132.473 25.9618C133.019 25.5444 132.95 26.4746 132.842 26.8344C132.571 27.7301 131.828 28.3969 131.067 28.9419C127.313 31.6299 122.422 32.4542 118.062 30.8975C114.219 29.5259 110.324 27.9267 106.351 26.9793C102.497 26.0607 98.452 25.9606 94.5572 26.685C93.0335 26.9678 91.5432 27.3863 90.084 27.9071C89.708 28.0416 89.3262 28.183 88.9272 28.2026C88.6903 28.2141 88.3039 28.1761 88.2809 27.8726C88.2728 27.7691 88.3096 27.668 88.3614 27.5783C88.5764 27.2035 89.0203 27.0241 89.386 26.8321C89.8287 26.601 90.2783 26.3814 90.7337 26.1768C91.6329 25.7721 92.5552 25.4191 93.4947 25.1202C95.3506 24.5292 97.2722 24.151 99.211 23.9762C100.15 23.8911 101.095 23.8532 102.039 23.8612V23.8589Z" fill="#FD6125"/>
<path d="M109.021 43.4077C109.01 43.4928 108.958 43.5836 108.853 43.6767C108.535 43.9572 108.122 44.163 107.734 44.3297C106.119 45.0288 104.132 45.1575 102.427 44.7344C101.608 44.5309 100.845 44.1446 100.114 43.7215C96.664 41.7256 93.7605 38.9445 90.5119 36.66C88.8871 35.5183 86.9759 34.1973 84.9106 34.2076C84.2023 34.2111 84.0654 33.8616 84.7439 33.5592C85.4488 33.2442 86.2411 33.1982 87.0127 33.1775C88.2339 33.1441 89.4701 33.1614 90.6568 33.45C92.6129 33.9248 94.2917 35.0883 95.9821 36.1254C97.5667 37.098 99.1214 38.0937 100.637 39.1744C101.839 40.0321 103.06 40.9162 104.385 41.5762C105.706 42.2338 107.171 42.5166 108.572 42.9501C108.838 43.0329 109.046 43.203 109.02 43.4077H109.021Z" fill="#FD6125"/>
<path d="M96.1344 48.4802C94.5187 48.448 92.8927 47.8421 91.6255 46.8579C90.042 45.6277 88.8553 44.048 87.7111 42.428C86.7901 41.1243 85.9472 39.763 84.9352 38.5224C84.5281 38.0235 84.0946 37.5348 83.568 37.16C83.3368 36.9956 82.2122 36.5817 82.7377 36.1299C84.0854 36.392 85.4182 36.7749 86.6383 37.4049C90.8608 39.5871 93.1699 44.2779 97.6442 46.0888C98.302 46.3543 98.9735 46.5486 99.6646 46.7038C99.7302 46.7188 99.798 46.7349 99.8532 46.774C99.9717 46.8614 99.9855 47.0442 99.9211 47.1775C99.8567 47.3109 99.7336 47.404 99.6106 47.488C98.563 48.2008 97.351 48.5032 96.1344 48.479V48.4802Z" fill="#FD6125"/>
<path d="M92.0394 52.7697C90.1995 52.7157 88.6264 50.9727 87.5869 49.6264C86.3921 48.08 85.5055 46.3784 84.65 44.6274C83.7703 42.8258 82.9527 40.9943 82.1983 39.1352C81.8637 38.3085 82.8205 38.8616 83.0803 39.1145C85.908 41.8543 87.3673 45.6357 89.965 48.5629C90.5192 49.1872 91.1275 49.7735 91.8255 50.2357C92.1866 50.4749 92.5707 50.6795 92.9755 50.8324C93.2837 50.9486 93.8345 50.9773 93.8943 51.3797C93.9242 51.5832 93.8345 51.7867 93.7183 51.9569C93.34 52.5087 92.7006 52.7904 92.0406 52.7709L92.0394 52.7697Z" fill="#FD6125"/>
<path d="M81.4339 41.7958C81.4006 41.4003 81.3926 40.9553 81.58 40.7254C81.718 40.5552 82.0193 40.5472 82.0538 40.7944C82.3619 42.9823 83.0944 45.0276 83.858 47.0868C84.5779 49.0275 85.384 50.959 86.5454 52.6836C86.9019 53.2136 87.2917 53.723 87.7183 54.1989C88.3393 54.8945 89.0338 55.5315 89.7594 56.1167C89.9526 56.273 90.2504 56.5616 90.0159 56.8146C89.9377 56.8996 89.8261 56.9456 89.7169 56.9836C87.8666 57.6355 86.1084 56.5685 85.0263 55.1038C84.3398 54.176 83.8879 53.0952 83.5176 52.0018C82.9852 50.429 82.6092 48.8102 82.2619 47.188C81.9181 45.5807 81.5788 43.9733 81.4834 42.3281C81.4754 42.1878 81.4512 41.9981 81.4339 41.7946V41.7958Z" fill="#FD6125"/>
<path d="M112.093 68.829C111.637 67.692 111.191 66.5526 110.747 65.4109C109.604 62.47 108.461 59.529 107.326 56.5857C107.249 56.3879 107.148 56.327 106.942 56.3316C106.279 56.3442 105.614 56.3523 104.95 56.3293C104.686 56.3201 104.581 56.4224 104.495 56.6501C103.099 60.3142 101.696 63.9749 100.297 67.6368C100.109 68.1277 99.9264 68.6221 99.731 69.1441C100.513 69.1441 101.248 69.1314 101.981 69.151C102.237 69.1579 102.347 69.0785 102.421 68.8348C102.674 68.0012 102.958 67.1781 103.215 66.3457C103.278 66.1433 103.372 66.0766 103.587 66.0778C105.105 66.0881 106.622 66.0881 108.139 66.0778C108.352 66.0766 108.45 66.1387 108.516 66.3411C108.799 67.1895 109.103 68.0311 109.39 68.8773C109.454 69.0647 109.535 69.1556 109.758 69.1498C110.469 69.1314 111.181 69.1303 111.893 69.1498C112.198 69.1579 112.182 69.0555 112.092 68.829H112.093ZM104.119 63.8025C104.686 62.1848 105.247 60.5867 105.844 58.8874C106.456 60.5798 107.034 62.1814 107.619 63.8025H104.12H104.119Z" fill="#08030A"/>
<path d="M0.017435 0.0020752C-0.178053 4.13876 1.27316 7.6914 4.23077 10.6289C8.96617 15.3336 15.3816 17.5928 22.0029 17.0317C25.5113 16.7339 28.9761 15.9878 32.4925 15.8176C36.8795 15.6061 41.2619 16.3626 45.3671 17.9032C49.3424 19.3944 53.0533 21.6766 56.1075 24.6314C56.2282 24.7486 56.3478 24.8659 56.4674 24.9855C56.6997 25.2177 56.9952 25.5281 57.3298 25.6063C57.4793 25.6408 57.6576 25.5994 57.7381 25.4684C57.7852 25.3913 57.7921 25.297 57.7875 25.2062C57.768 24.8245 57.5771 24.475 57.377 24.1496C56.3018 22.3975 54.8448 20.8994 53.2269 19.6312C49.8404 16.98 45.7949 15.0703 41.6517 13.9551C40.8307 13.7343 40.0016 13.5446 39.1667 13.3871C33.5367 12.3259 27.7433 12.7226 22.0328 12.2604C14.0949 11.6188 5.97061 8.81927 1.24901 2.03018C0.89253 1.5174 0.607348 0.955192 0.286518 0.418273C0.202573 0.276858 0.107129 0.141191 0.017435 0.0020752V0.0020752Z" fill="#08030A"/>
<path d="M19.9259 23.8348C22.9985 23.8072 26.0653 23.4853 29.0759 22.9012C32.1013 22.3149 35.1716 21.8826 38.2592 21.8699C42.5243 21.8515 46.9503 22.5425 50.867 24.2843C52.1641 24.8615 53.398 25.5801 54.5387 26.424C54.8124 26.6263 56.2015 27.4472 55.7415 26.4665C55.392 25.7203 54.7733 25.1363 54.1305 24.6189C52.5516 23.3496 50.7485 22.3873 48.8627 21.6572C48.3866 21.4733 47.9048 21.3031 47.4195 21.1456C46.9906 21.0065 46.5605 20.9663 46.1373 20.8214C45.1081 20.4719 44.0537 20.2017 42.9842 20.0062C39.968 19.4544 36.8781 19.4647 33.8274 19.6579C29.2828 19.9453 24.6705 20.7513 20.1156 20.3592C19.8224 20.3339 19.5292 20.3029 19.2371 20.2672C16.4267 19.9177 13.7151 19.0324 11.1186 17.9241C9.80882 17.3653 8.52435 16.7502 7.25253 16.111C6.57522 15.7707 5.95886 15.3487 5.23556 15.1038C4.92392 14.9992 4.5686 15.0314 4.66749 15.4384C5.04927 17.0135 6.08995 18.2863 7.16858 19.4498C8.23802 20.6029 9.49604 21.6101 10.9484 22.2355C13.6105 23.383 16.2795 23.8107 19.1738 23.8314C19.4245 23.8337 19.6752 23.8325 19.9259 23.8314V23.8348Z" fill="#08030A"/>
<path d="M47.1658 28.9752C44.0909 28.9936 41.0413 29.749 38.1837 30.8711C34.7317 32.2266 31.597 34.3938 27.9747 35.3056C26.0658 35.7862 24.0925 35.885 22.1365 36.0023C21.5201 36.0391 20.6393 35.8379 20.0758 36.146C19.1237 36.6645 20.6381 37.6878 21.1476 37.9948C23.1622 39.2066 25.4851 39.9585 27.8367 39.9343C30.9461 39.9033 34.0762 38.5811 36.7325 37.0152C38.9691 35.6976 41.3058 34.5548 43.7068 33.5649C45.6502 32.7635 47.6223 32.0369 49.7049 31.7058C51.0319 31.4954 52.1036 31.2264 53.4525 31.1907C54.3287 31.1677 55.4511 31.2965 56.3112 31.4759C56.4377 31.5023 56.6527 31.5379 56.8103 31.4931C56.9943 31.4414 56.9943 31.1758 56.8149 31.1102C54.3644 30.2158 51.8736 29.3684 49.2817 29.0844C48.5768 29.0074 47.8707 28.9729 47.1658 28.9764V28.9752Z" fill="#08030A"/>
<path d="M40.4003 23.8589C37.5738 23.8808 34.7312 24.3062 31.9529 25.0788C31.7161 25.1443 31.4792 25.2087 31.2434 25.2766C28.6619 26.0147 26.109 26.8563 23.4952 27.4829C21.338 27.9991 19.1635 28.3681 16.9337 28.3072C14.3717 28.2359 12.0247 27.5289 9.96633 25.9618C9.42012 25.5444 9.48911 26.4746 9.59721 26.8344C9.86744 27.7301 10.6114 28.3969 11.3715 28.9419C15.1261 31.6299 20.0167 32.4542 24.3772 30.8975C28.2203 29.5259 32.1151 27.9267 36.0881 26.9793C39.9415 26.0607 43.9869 25.9606 47.8817 26.685C49.4054 26.9678 50.8957 27.3863 52.355 27.9071C52.731 28.0416 53.1128 28.183 53.5118 28.2026C53.7487 28.2141 54.1351 28.1761 54.1581 27.8726C54.1661 27.7691 54.1293 27.668 54.0776 27.5783C53.8625 27.2035 53.4186 27.0241 53.053 26.8321C52.6102 26.601 52.1606 26.3814 51.7053 26.1768C50.806 25.7721 49.8838 25.4191 48.9443 25.1202C47.0883 24.5292 45.1668 24.151 43.228 23.9762C42.2885 23.8911 41.3444 23.8532 40.4003 23.8612V23.8589Z" fill="#08030A"/>
<path d="M33.4186 43.4076C33.4301 43.4926 33.4818 43.5835 33.5865 43.6766C33.905 43.9571 34.3178 44.1629 34.7054 44.3296C36.321 45.0287 38.3081 45.1574 40.0123 44.7343C40.8322 44.5308 41.5946 44.1445 42.3259 43.7214C45.7757 41.7255 48.6793 38.9443 51.9278 36.6599C53.5527 35.5182 55.4639 34.1971 57.5291 34.2075C58.2375 34.2109 58.3743 33.8614 57.6959 33.5591C56.991 33.244 56.1987 33.198 55.4271 33.1774C54.2058 33.144 52.9697 33.1613 51.7829 33.4498C49.8269 33.9247 48.148 35.0882 46.4576 36.1252C44.873 37.0979 43.3183 38.0935 41.8027 39.1743C40.601 40.032 39.3798 40.9161 38.0551 41.576C36.7304 42.236 35.2688 42.5165 33.8682 42.95C33.6014 43.0327 33.3933 43.2029 33.4197 43.4076H33.4186Z" fill="#08030A"/>
<path d="M46.3045 48.4802C47.9202 48.448 49.5462 47.8421 50.8134 46.8579C52.3969 45.6277 53.5836 44.048 54.7278 42.428C55.6489 41.1243 56.4918 39.763 57.5037 38.5224C57.9108 38.0235 58.3443 37.5348 58.871 37.16C59.1021 36.9956 60.2267 36.5817 59.7012 36.1299C58.3535 36.392 57.0207 36.7749 55.8006 37.4049C51.5781 39.5871 49.2691 44.2779 44.7947 46.0888C44.1369 46.3543 43.4654 46.5486 42.7743 46.7038C42.7087 46.7188 42.6409 46.7349 42.5857 46.774C42.4672 46.8614 42.4534 47.0442 42.5178 47.1775C42.5822 47.3109 42.7053 47.404 42.8283 47.488C43.8759 48.2008 45.0879 48.5032 46.3045 48.479V48.4802Z" fill="#08030A"/>
<path d="M50.3995 52.7697C52.2393 52.7157 53.8124 50.9727 54.852 49.6264C56.0467 48.08 56.9333 46.3784 57.7889 44.6274C58.6686 42.8258 59.4862 40.9943 60.2405 39.1352C60.5752 38.3085 59.6184 38.8616 59.3585 39.1145C56.5309 41.8543 55.0716 45.6357 52.4739 48.5629C51.9197 49.1872 51.3113 49.7735 50.6133 50.2357C50.2523 50.4749 49.8682 50.6795 49.4634 50.8324C49.1552 50.9486 48.6044 50.9773 48.5446 51.3797C48.5147 51.5832 48.6044 51.7867 48.7206 51.9569C49.0989 52.5087 49.7382 52.7904 50.3983 52.7709L50.3995 52.7697Z" fill="#08030A"/>
<path d="M61.0048 41.7957C61.0381 41.4002 61.0462 40.9552 60.8587 40.7253C60.7207 40.5551 60.4195 40.5471 60.385 40.7943C60.0768 42.9822 59.3443 45.0275 58.5807 47.0867C57.8609 49.0274 57.0548 50.9589 55.8934 52.6835C55.5369 53.2135 55.147 53.7228 54.7204 54.1988C54.0995 54.8944 53.4049 55.5313 52.6793 56.1166C52.4861 56.2729 52.1883 56.5615 52.4229 56.8144C52.5011 56.8995 52.6126 56.9455 52.7219 56.9834C54.5721 57.6353 56.3303 56.5684 57.4124 55.1037C58.0989 54.1758 58.5508 53.0951 58.9211 52.0017C59.4535 50.4289 59.8296 48.8101 60.1768 47.1878C60.5207 45.5805 60.8599 43.9732 60.9553 42.328C60.9634 42.1877 60.9875 41.998 61.0048 41.7945V41.7957Z" fill="#08030A"/>
</svg>
